# xmcd CD database file generated by Grip 2.91
# 
# Track frame offsets:
#       150
#       18832
#       38918
#       59803
#       72681
#       87088
#       100338
#       123011
#       136703
#       155042
#       162288
#       182159
# 
# Disc length: 2664 seconds
# 
# Revision: 3
# Processed by: cddbd v1.4b41PL1 Copyright (c) Steve Scherf et al.
# Submitted via: Grip 2.91
# 
DISCID=a10a660c
DTITLE=Hayseed - Melic
DYEAR=1900
DGENRE=
TTITLE0=Cold Feet
TTITLE1=Wild Horses
TTITLE2=Falls the Shadow
TTITLE3=God-Shaped Hole
TTITLE4=Father's Lament
TTITLE5=Voices
TTITLE6=Melissa
TTITLE7=Between the Lines
TTITLE8=Walk This Earth
TTITLE9=Origin of the Snake
TTITLE10=Precious Memories
TTITLE11=Credo
EXTD=
EXTT0=
EXTT1=
EXTT2=
EXTT3=
EXTT4=
EXTT5=
EXTT6=
EXTT7=
EXTT8=
EXTT9=
EXTT10=
EXTT11=
PLAYORDER=
